 <svg  version="1.0" xmlns="http://www.w3.org/2000/svg"  width="300.000000pt" height="272.000000pt" viewBox="0 0 300.000000 272.000000"  preserveAspectRatio="xMidYMid meet">  <g transform="translate(0.000000,272.000000) scale(0.100000,-0.100000)" fill="#c6a16c" stroke="none"> <path d="M2297 2378 c-16 -16 -37 -75 -71 -193 -26 -93 -52 -185 -57 -202 l-11 -33 -1079 0 c-1072 0 -1079 0 -1079 -20 0 -20 8 -20 1073 -22 l1074 -3 -66 -235 -66 -235 -108 -3 c-103 -3 -107 -2 -107 18 0 32 -44 70 -80 70 -36 0 -80 -38 -80 -70 0 -20 -3 -20 -458 -20 l-458 0 -27 89 c-29 96 -49 121 -99 121 -41 0 -64 -30 -88 -112 -12 -40 -23 -79 -25 -85 -3 -10 -61 -13 -245 -13 -233 0 -240 -1 -240 -20 0 -19 7 -20 236 -20 185 0 235 -3 232 -12 -3 -7 -34 -115 -69 -240 l-64 -228 -167 0 c-161 0 -168 -1 -168 -20 0 -19 7 -20 160 -20 88 0 160 -3 160 -6 0 -3 -14 -54 -31 -114 -28 -98 -34 -108 -50 -100 -51 28 -98 -7 -122 -91 -53 -186 -45 -169 -83 -169 -27 0 -34 -4 -34 -20 0 -17 7 -20 44 -20 24 0 48 6 53 13 6 6 24 63 41 126 30 109 42 130 69 131 13 0 39 -24 45 -42 7 -20 35 7 43 40 24 102 270 959 278 970 10 13 53 17 61 4 4 -7 31 -101 241 -847 53 -187 104 -351 114 -365 40 -55 123 -48 155 13 9 18 53 160 97 317 118 418 118 419 139 430 15 8 23 6 35 -7 52 -63 66 -73 93 -73 55 0 68 23 125 219 54 190 69 217 104 195 16 -10 27 -43 89 -262 12 -44 21 -55 49 -69 40 -19 74 -9 99 29 8 13 71 226 141 473 222 789 197 710 227 713 18 2 30 -3 37 -15 5 -11 118 -403 251 -873 133 -470 259 -913 279 -985 35 -123 38 -130 64 -133 22 -3 27 1 27 17 0 12 -6 21 -12 21 -8 0 -36 85 -75 223 -34 122 -65 230 -68 240 -6 15 1 17 74 17 74 0 81 2 81 20 0 18 -7 20 -85 20 l-84 0 -16 53 c-8 28 -39 136 -68 240 l-53 187 153 0 c146 0 153 1 153 20 0 19 -7 20 -159 20 l-159 0 -62 223 c-35 122 -65 230 -68 240 -4 16 11 17 222 17 219 0 226 1 226 20 0 19 -7 20 -233 20 l-232 0 -38 138 c-68 243 -78 273 -98 293 -26 26 -74 24 -102 -3z m-677 -993 c0 -18 -74 -262 -82 -272 -18 -22 -46 -14 -69 20 -29 41 -38 47 -71 47 -61 0 -71 -15 -113 -167 l-28 -103 -194 0 c-146 0 -195 3 -198 13 -2 6 -32 114 -67 240 l-64 227 443 0 c244 0 443 -2 443 -5z m376 -12 c-43 -156 -58 -192 -77 -198 -13 -4 -26 -2 -34 6 -10 11 -65 182 -65 203 0 3 41 6 91 6 81 0 90 -2 85 -17z m-756 -510 c0 -5 -28 -107 -62 -227 -61 -218 -78 -256 -116 -256 -35 0 -53 38 -111 242 -33 113 -62 215 -66 227 -6 21 -5 21 174 21 100 0 181 -3 181 -7z"/> </g> </svg> 