<?xml version="1.0" encoding="UTF-8"?>
<svg version="1.1" xmlns="http://www.w3.org/2000/svg" width="2994" height="1878">
<path d="M0 0 C988.02 0 1976.04 0 2994 0 C2994 619.74 2994 1239.48 2994 1878 C2005.98 1878 1017.96 1878 0 1878 C0 1258.26 0 638.52 0 0 Z " fill="#C09B6E" transform="translate(0,0)"/>
<path d="M0 0 C21.79710129 14.66797418 25.60775168 52.94775408 32.16900635 76.78869629 C33.22759634 80.63207178 34.29069182 84.47419983 35.35351562 88.31640625 C37.05106838 94.45523207 38.74697084 100.59451129 40.44165039 106.73413086 C41.29433807 109.82278029 42.14713879 112.91139849 43 116 C43.21426006 116.77600178 43.42852013 117.55200356 43.64927292 118.35152054 C48.83583185 137.13245283 54.07880367 155.89196759 59.53631592 174.59637451 C64.50549753 191.6410208 69.33427122 208.71115546 73.875 225.875 C77.15458942 238.26311992 80.58687106 250.57528137 84.32373047 262.83520508 C95.60348409 299.90526436 105.90907623 337.26919703 116.27539825 374.60233498 C120.20163122 388.74152851 124.15775143 402.87226591 128.125 417 C128.45275421 418.16721588 128.78050842 419.33443176 129.11819458 420.53701782 C134.01974709 437.98792348 138.94045699 455.43339562 143.875 472.875 C144.16425354 473.89770996 144.45350708 474.92041992 144.75152588 475.97412109 C147.58234484 485.98020785 150.42128183 495.98392831 153.28222656 505.98144531 C153.58148513 507.02722213 153.58148513 507.02722213 153.88678932 508.09412575 C154.08964231 508.8029962 154.29249531 509.51186665 154.50149536 510.24221802 C158.50631259 524.23749022 162.48878692 538.23878695 166.4375 552.25 C166.77944586 553.46331686 166.77944586 553.46331686 167.12829971 554.70114517 C168.98589542 561.29346344 170.84191226 567.88622603 172.69787598 574.47900391 C174.31868519 580.236209 175.94025552 585.99319916 177.5625 591.75 C177.78863165 592.55271017 178.0147633 593.35542034 178.24774742 594.18245506 C180.73778197 603.01932178 183.23886345 611.85286228 185.7668457 620.67895508 C186.1044608 621.8580309 186.1044608 621.8580309 186.44889641 623.06092644 C187.5090012 626.76170133 188.5709694 630.46192581 189.6361084 634.16125488 C192.89598455 645.50644208 195.94067878 656.90147661 198.91796875 668.32421875 C200.88454581 675.71171706 203.0340715 683.04299615 205.18511963 690.37858582 C207.35713165 697.78655824 209.50103539 705.20199378 211.62109375 712.625 C211.92675262 713.69520386 212.2324115 714.76540771 212.54733276 715.86804199 C213.5112692 719.24520543 214.47444151 722.62258611 215.4375 726 C216.85397035 730.96489977 218.27074044 735.929714 219.6875 740.89453125 C220.04617661 742.15175491 220.40485321 743.40897858 220.7743988 744.70429993 C223.17629368 753.12118409 225.58597923 761.53580529 228 769.94921875 C235.38669611 795.70687477 242.66957047 821.49108359 249.84301758 847.30877686 C254.15448989 862.82560726 258.49201211 878.33350103 262.9375 893.8125 C268.12582026 911.87809942 273.2269823 929.96775504 278.3125 948.0625 C278.69725538 949.43128461 279.08201083 950.80006919 279.46676636 952.16885376 C281.9803514 961.11186612 284.49098203 970.05570515 287 979 C287.45320114 980.61520035 287.45320114 980.61520035 287.91555786 982.26303101 C291.17660677 993.8877005 294.42324885 1005.51629161 297.65480804 1017.14919281 C305.68190277 1046.03979144 313.78490597 1074.90362826 322.1875 1103.6875 C332.16669185 1137.87930659 342.10655169 1172.10258639 351.125 1206.5625 C354.63984183 1219.99089793 358.54989086 1233.29705102 362.45834351 1246.61508179 C367.36753957 1263.34529104 372.18851371 1280.09859977 376.9375 1296.875 C377.39468918 1298.4864238 377.39468918 1298.4864238 377.8611145 1300.13040161 C381.20352403 1311.91607796 384.47751604 1323.71669232 387.64453125 1335.55078125 C390.22213658 1345.17817067 392.88656847 1354.76600536 395.75 1364.3125 C396.12641302 1365.5969727 396.50271447 1366.88147811 396.87890625 1368.16601562 C397.24371094 1369.38611328 397.60851563 1370.60621094 397.984375 1371.86328125 C398.30116211 1372.92844971 398.61794922 1373.99361816 398.94433594 1375.09106445 C400.06844979 1378.18861684 400.92692511 1380.4226425 403 1383 C405.67051945 1383.51426995 407.72061074 1383.67407364 410.39696026 1383.63085651 C411.16018995 1383.63831411 411.92341964 1383.6457717 412.7097775 1383.65345529 C415.28850317 1383.67249023 417.86577736 1383.65566085 420.44450378 1383.63923645 C422.30326158 1383.64554286 424.16201302 1383.65404246 426.02075177 1383.66455668 C431.14482647 1383.68715026 436.26845312 1383.67846477 441.39254224 1383.6648711 C446.91200875 1383.65563884 452.43138056 1383.67513078 457.95082092 1383.69119263 C467.51903355 1383.71507776 477.08711733 1383.72063003 486.65535545 1383.71384621 C500.4895134 1383.70406419 514.32352802 1383.72175112 528.15766279 1383.74621352 C550.60079964 1383.78514972 573.04389678 1383.80181161 595.48706055 1383.80444336 C617.29274596 1383.80705328 639.09838356 1383.8202171 660.90405273 1383.84741211 C662.2748329 1383.84910688 663.64561307 1383.85080134 665.01639324 1383.85249549 C675.62907237 1383.86566556 686.2417506 1383.87950841 696.85442865 1383.89351356 C748.90296204 1383.96204345 800.95138757 1383.977256 853 1384 C853 1465.18 853 1546.36 853 1630 C-135.02 1630 -1123.04 1630 -2141 1630 C-2141 1546.18 -2141 1462.36 -2141 1376 C-2139.68 1376 -2138.36 1376 -2137 1376 C-2137 1376.66 -2137 1377.32 -2137 1378 C-2135.989375 1378.103125 -2134.97875 1378.20625 -2133.9375 1378.3125 C-2129.89144098 1379.01895475 -2126.7491152 1380.36402246 -2123 1382 C-2117.91037954 1383.12987066 -2112.94801585 1383.14212869 -2107.76421261 1383.13142776 C-2106.83862387 1383.1334804 -2105.91303513 1383.13553303 -2104.95939824 1383.13764787 C-2101.8468558 1383.14331831 -2098.73435761 1383.14186056 -2095.62181091 1383.14044189 C-2093.37217933 1383.14302548 -2091.1225482 1383.14603862 -2088.87291771 1383.1494453 C-2082.68226686 1383.15751888 -2076.4916276 1383.15930506 -2070.3009721 1383.16004276 C-2064.31314073 1383.16170271 -2058.3253147 1383.16802014 -2052.33748659 1383.17412117 C-2036.29912366 1383.19017301 -2020.26076169 1383.19608285 -2004.22239217 1383.20086992 C-1996.63728894 1383.20320597 -1989.05218647 1383.20680856 -1981.46708383 1383.2105653 C-1955.50763817 1383.22339803 -1929.54819293 1383.23411908 -1903.58874416 1383.2375679 C-1901.95957285 1383.23778953 -1900.33040154 1383.23801132 -1898.70123023 1383.23823325 C-1897.06811836 1383.23845389 -1895.43500648 1383.23867438 -1893.80189461 1383.2388947 C-1890.5255632 1383.23933726 -1887.2492318 1383.23978437 -1883.97290039 1383.24023438 C-1883.16056224 1383.24034377 -1882.34822408 1383.24045316 -1881.51126962 1383.24056586 C-1855.15281801 1383.244199 -1828.79439385 1383.26013016 -1802.43595276 1383.28342474 C-1774.57376067 1383.30800333 -1746.71158428 1383.32173975 -1718.84938103 1383.32293582 C-1715.79290362 1383.32310728 -1712.73642621 1383.32332271 -1709.67994881 1383.32357025 C-1708.92734791 1383.32362602 -1708.17474702 1383.32368179 -1707.39934003 1383.32373925 C-1695.27376101 1383.32489118 -1683.14821013 1383.33592491 -1671.02264062 1383.35045731 C-1658.84438089 1383.36480096 -1646.66615735 1383.36807132 -1634.48789149 1383.36001733 C-1627.88685817 1383.35594557 -1621.285901 1383.35710447 -1614.6848774 1383.37107468 C-1608.648103 1383.38373443 -1602.61149572 1383.38268632 -1596.57472182 1383.37048396 C-1594.38505391 1383.36851318 -1592.19537448 1383.37166841 -1590.00572281 1383.38032833 C-1587.04025794 1383.39131869 -1584.07539358 1383.38400584 -1581.10994625 1383.3719368 C-1579.82066908 1383.38332959 -1579.82066908 1383.38332959 -1578.50534591 1383.39495254 C-1573.84301887 1383.35369956 -1570.7920488 1383.01683685 -1567 1380 C-1562.78044968 1373.91213361 -1560.69466402 1366.537825 -1558.625 1359.5 C-1558.34927658 1358.56391907 -1558.07355316 1357.62783813 -1557.78947449 1356.66339111 C-1555.67697653 1349.43130193 -1553.69080006 1342.17345679 -1551.76171875 1334.890625 C-1548.43434174 1322.43550348 -1544.85141619 1310.06437089 -1541.20452881 1297.69967651 C-1535.55371079 1278.53257523 -1530.03848706 1259.35644553 -1525.27026367 1239.94824219 C-1521.60392094 1225.2622037 -1517.49252052 1211.17016304 -1503.9296875 1202.9453125 C-1497.42924787 1199.76088661 -1488.97143943 1199.96699756 -1482.1015625 1201.75390625 C-1474.4265574 1204.69253433 -1469.88188338 1208.44177533 -1466 1215.75 C-1465.30959664 1217.0005542 -1464.61819428 1218.25055741 -1463.92578125 1219.5 C-1463.29027344 1220.655 -1462.65476562 1221.81 -1462 1223 C-1458.80362217 1228.69262018 -1458.80362217 1228.69262018 -1454 1233 C-1448.52011172 1232.79321176 -1445.25236935 1231.41204703 -1441 1228 C-1439.28230054 1225.00259045 -1439.28230054 1225.00259045 -1438.1875 1221.3125 C-1437.94797607 1220.58957764 -1437.70845215 1219.86665527 -1437.46166992 1219.12182617 C-1434.54269478 1210.03500095 -1432.14193259 1200.78115849 -1429.6730957 1191.5637207 C-1426.70812834 1180.50206101 -1423.58041158 1169.49426088 -1420.375 1158.5 C-1419.44228301 1155.29830079 -1418.50993023 1152.09649594 -1417.578125 1148.89453125 C-1417.35518265 1148.12854614 -1417.1322403 1147.36256104 -1416.90254211 1146.57336426 C-1414.63773757 1138.77784709 -1412.45062771 1130.9612127 -1410.27856445 1123.1394043 C-1408.75990624 1117.67987173 -1407.19186511 1112.23988748 -1405.5625 1106.8125 C-1403.31343046 1099.29359741 -1401.3150358 1091.7127333 -1399.3125 1084.125 C-1395.04690768 1067.99257029 -1390.46905154 1051.95518022 -1385.84289551 1035.92315674 C-1384.5546329 1031.45546949 -1383.26934307 1026.98692775 -1381.98377991 1022.51846313 C-1380.13581445 1016.09541334 -1378.28679438 1009.67266728 -1376.4375 1003.25 C-1376.25171513 1002.60472855 -1376.06593025 1001.95945709 -1375.87451553 1001.29463196 C-1368.34098212 975.13048746 -1368.34098212 975.13048746 -1365.08203125 964.01953125 C-1361.76760861 952.71435339 -1358.51069263 941.42779164 -1355.73046875 929.97802734 C-1353.43894133 920.57060098 -1350.71193801 911.29325921 -1348 902 C-1346.71446526 897.585419 -1345.42973159 893.17060546 -1344.14581299 888.7555542 C-1343.75645042 887.41684281 -1343.36692363 886.07817917 -1342.97723389 884.73956299 C-1340.0948688 874.8357361 -1337.28009128 864.91464819 -1334.51708984 854.97680664 C-1332.6278659 848.19721951 -1330.67542211 841.43873852 -1328.6875 834.6875 C-1325.75522129 824.71425065 -1322.95760051 814.7066565 -1320.1875 804.6875 C-1316.84185722 792.58954343 -1313.4560331 780.5044109 -1310 768.4375 C-1309.69252838 767.36382675 -1309.69252838 767.36382675 -1309.37884521 766.26846313 C-1308.34121104 762.646322 -1307.30251403 759.02448677 -1306.26318359 755.40283203 C-1299.42777884 731.58280398 -1292.59826651 707.76118113 -1286.0390625 683.86328125 C-1282.68653038 671.6507737 -1279.2916117 659.45720456 -1275.71484375 647.30834961 C-1273.04042841 638.20163409 -1270.47702716 629.064789 -1267.91928101 619.92483521 C-1265.19045768 610.17731078 -1262.39393842 600.45223013 -1259.5234375 590.74536133 C-1257.70109987 584.53749647 -1256.0129636 578.30399264 -1254.37939453 572.04394531 C-1244.44388011 534.12238721 -1244.44388011 534.12238721 -1229.11328125 524.12890625 C-1222.76716949 520.73883915 -1214.57819239 521.23823754 -1207.65234375 522.390625 C-1200.29962347 524.67099153 -1194.98384833 530.71741615 -1191.375 537.3125 C-1189.30406828 541.96687379 -1187.72591492 546.717082 -1186.203125 551.5703125 C-1185.9418985 552.40106796 -1185.680672 553.23182343 -1185.41152954 554.0877533 C-1182.76215413 562.61265267 -1180.41292508 571.21175972 -1178.10568237 579.83441162 C-1176.81962786 584.63604707 -1175.51763157 589.43335062 -1174.21484375 594.23046875 C-1173.94851639 595.21130432 -1173.68218903 596.19213989 -1173.40779114 597.20269775 C-1170.66321207 607.28271452 -1167.81601729 617.33252247 -1164.9375 627.375 C-1164.6899295 628.23940704 -1164.44235901 629.10381409 -1164.18728638 629.99441528 C-1161.52093946 639.29748107 -1158.83077009 648.59341936 -1156.1171875 657.8828125 C-1155.18154719 661.08832497 -1154.24663337 664.29404806 -1153.3125 667.5 C-1152.96788223 668.682453 -1152.96788223 668.682453 -1152.61630249 669.88879395 C-1149.50153898 680.59554445 -1146.55249351 691.33263387 -1143.75 702.125 C-1139.07868554 720.11361784 -1133.8722957 737.94371398 -1128.69372559 755.79161072 C-1128.37456177 756.89162918 -1128.05539795 757.99164764 -1127.7265625 759.125 C-1127.40901001 760.2191774 -1127.09145752 761.3133548 -1126.76428223 762.44068909 C-1123.79689361 772.6767357 -1120.88584024 782.92819971 -1118 793.1875 C-1117.77328613 793.99293243 -1117.54657227 794.79836487 -1117.31298828 795.62820435 C-1115.27432493 802.87309504 -1113.24279258 810.11992484 -1111.2265625 817.37109375 C-1107.85517391 829.48915342 -1104.39087725 841.57794712 -1100.88671875 853.65814209 C-1095.54362816 872.08080509 -1090.29753502 890.52871502 -1085.125 909 C-1084.79021637 910.19545441 -1084.45543274 911.39090881 -1084.11050415 912.62258911 C-1083.43170029 915.04664431 -1082.75290289 917.47070132 -1082.07411194 919.89476013 C-1081.56949684 921.69675621 -1081.56949684 921.69675621 -1081.0546875 923.53515625 C-1080.71831772 924.73644669 -1080.38194794 925.93773712 -1080.03538513 927.1754303 C-1076.46086235 939.93528421 -1072.85924919 952.68743113 -1069.25 965.4375 C-1068.93674774 966.54452271 -1068.62349548 967.65154541 -1068.30075073 968.79211426 C-1065.2265329 979.65403906 -1062.14576181 990.51395401 -1059.02734375 1001.36328125 C-1052.77661985 1023.11840366 -1046.68825794 1044.91528802 -1040.6678009 1066.73504639 C-1034.86871498 1087.75049055 -1028.96850503 1108.7335433 -1022.95019531 1129.6875 C-1017.79474598 1147.6425101 -1012.74424125 1165.62451709 -1007.75 1183.625 C-1001.03676966 1207.81905927 -994.1766268 1231.96887571 -987.26074219 1256.10571289 C-978.10150731 1288.07266639 -978.10150731 1288.07266639 -973.84341431 1303.47836304 C-973.26527131 1305.56975706 -972.68504085 1307.66056119 -972.10424805 1309.7512207 C-970.52500036 1315.44286823 -968.96015923 1321.13779429 -967.43513489 1326.84420776 C-961.4305765 1349.2556694 -955.09652284 1369.21132111 -934.734375 1382.47265625 C-919.18753181 1391.15667866 -902.85424983 1394.52940661 -885.234375 1391.3125 C-882.04587726 1390.38829776 -879.05578274 1389.29454806 -876 1388 C-874.99839844 1387.59910156 -873.99679687 1387.19820312 -872.96484375 1386.78515625 C-856.46800404 1379.4414018 -845.34998887 1364.85529056 -838.94897461 1348.27807617 C-837.89399267 1345.24137176 -836.90383925 1342.19108442 -835.9375 1339.125 C-835.56028809 1337.94083496 -835.18307617 1336.75666992 -834.79443359 1335.53662109 C-830.67933863 1322.44845526 -827.16182632 1309.19041954 -823.59472656 1295.94506836 C-820.23943238 1283.49172136 -816.78605538 1271.07282835 -813.1875 1258.6875 C-812.95746277 1257.89544159 -812.72742554 1257.10338318 -812.49041748 1256.287323 C-809.54635953 1246.16668317 -806.52207144 1236.07307344 -803.42285156 1225.9987793 C-798.90601656 1211.25095885 -794.84431833 1196.37341232 -791 1181.4375 C-787.76561881 1168.89399527 -784.1132888 1156.48531545 -780.42651367 1144.06854248 C-778.94795772 1139.08826215 -777.47201859 1134.10721677 -776 1129.125 C-775.67793579 1128.03517822 -775.67793579 1128.03517822 -775.34936523 1126.92333984 C-771.91728862 1115.29176719 -768.69194675 1103.61563514 -765.578125 1091.89453125 C-762.67102825 1080.97159499 -759.51018048 1070.11941472 -756.31640625 1059.27734375 C-753.36704449 1049.25464597 -750.4936854 1039.22303358 -747.8125 1029.125 C-744.71555508 1017.48243114 -741.43988166 1005.89458867 -738.125 994.3125 C-737.86591858 993.40711487 -737.60683716 992.50172974 -737.33990479 991.56890869 C-734.73757246 982.48149215 -732.12257941 973.39787983 -729.47265625 964.32421875 C-729.27838043 963.65893158 -729.08410461 962.99364441 -728.88394165 962.30819702 C-728.31847259 960.37212799 -727.75298646 958.43606395 -727.1875 956.5 C-724.16675589 946.15656474 -721.293343 935.78319827 -718.52661133 925.36914062 C-716.30487022 917.0380963 -713.92824565 908.75910804 -711.48608398 900.49023438 C-709.94635133 895.27174449 -708.45413413 890.04649386 -707.03955078 884.79272461 C-697.13350009 848.09695288 -697.13350009 848.09695288 -681.6875 839.0625 C-672.70472648 836.47424322 -663.31035168 837.53320186 -655.1015625 842.04296875 C-647.82775962 847.39135322 -644.00144449 857.01148074 -640.03125 864.89453125 C-632.62410377 879.50609018 -623.51413465 889.22275323 -607.9609375 895.16015625 C-592.37094566 899.67747195 -577.30446317 896.87039953 -563.20703125 889.33203125 C-539.05907385 874.75777732 -533.53979563 837.02968052 -526.9453125 811.93823242 C-523.97741288 800.7192042 -520.7355564 789.58171445 -517.5 778.4375 C-516.35909194 774.50659248 -515.21835994 770.57563408 -514.078125 766.64453125 C-513.80548828 765.70462341 -513.53285156 764.76471558 -513.25195312 763.79632568 C-510.93522346 755.79867536 -508.67977641 747.78539301 -506.45654297 739.76123047 C-504.61884608 733.14982435 -502.70690967 726.56241918 -500.77392578 719.97827148 C-497.12636458 707.55050107 -493.6530654 695.09309012 -490.375 682.5625 C-487.03969918 669.81710387 -483.55206004 657.13368285 -479.75244141 644.51708984 C-479.04094241 642.13696179 -478.35172023 639.75150164 -477.66796875 637.36328125 C-474.55435829 626.66435979 -471.06687281 615.07733184 -461 609 C-453.25092459 605.14751849 -444.60929309 604.76338866 -436.3125 607.0625 C-427.51657934 610.48662626 -423.42304234 616.49295581 -419.43197632 624.73983765 C-417.27135711 629.65889204 -415.74400997 634.66400051 -414.30078125 639.83203125 C-413.98407471 640.92956223 -413.66736816 642.0270932 -413.34106445 643.15788269 C-412.32019426 646.70628377 -411.31608667 650.25917603 -410.3125 653.8125 C-409.60079765 656.30040049 -408.88814116 658.78802821 -408.17456055 661.27539062 C-406.41792436 667.4096591 -404.67509957 673.54773821 -402.93798828 679.68756104 C-401.85255866 683.52067862 -400.76080461 687.35196808 -399.66819763 691.18304443 C-394.47313401 709.40741692 -389.42278641 727.67190021 -384.375 745.9375 C-383.82073309 747.94263074 -383.26645263 749.94775773 -382.7121582 751.95288086 C-382.44218521 752.92956223 -382.17221222 753.90624359 -381.89405823 754.91252136 C-381.35833285 756.85053403 -380.82255666 758.78853264 -380.28672791 760.72651672 C-379.06637818 765.14053502 -377.84680412 769.55476175 -376.62988281 773.96972656 C-375.60990513 777.66875894 -374.58479649 781.36633017 -373.55548096 785.06277466 C-373.02610611 786.96851829 -372.50193109 788.87570405 -371.97802734 790.78295898 C-366.65917862 809.82911101 -360.42522174 829.38782443 -342.3125 839.94140625 C-337.40387063 842.18843084 -332.20100006 843.59655554 -327 845 C-326.34515625 845.1959375 -325.6903125 845.391875 -325.015625 845.59375 C-312.46240872 848.12385561 -299.55324409 845.1544933 -288.66796875 838.79296875 C-263.62428398 821.96273257 -258.16983054 788.44100815 -250.94995117 761.02441406 C-247.37867937 747.50625723 -243.52237748 734.06798271 -239.70605469 720.61743164 C-239.30235657 719.19423111 -239.30235657 719.19423111 -238.89050293 717.74227905 C-238.35673158 715.86077757 -237.82263647 713.97936791 -237.28820801 712.09805298 C-235.82240459 706.93079325 -234.37841909 701.7582079 -232.95535278 696.57902527 C-230.97686421 689.38372184 -228.86158757 682.26807796 -226.5 675.1875 C-224.2150876 668.17928937 -222.24097917 661.19114225 -220.625 654 C-218.74833296 645.69228682 -216.43550266 637.57903735 -213.9375 629.4375 C-210.24573811 617.37115803 -206.84528249 605.24615182 -203.5625 593.0625 C-198.69709008 575.0383996 -193.64208442 557.07189239 -188.5 539.125 C-188.12202841 537.80531854 -187.74405803 536.48563674 -187.36608887 535.16595459 C-185.20594804 527.62520777 -183.04263597 520.0853725 -180.87849617 512.54577255 C-177.34101124 500.22085718 -173.80882659 487.8944245 -170.28161049 475.56656647 C-169.20465999 471.80289587 -168.12687903 468.03946798 -167.046875 464.27667236 C-162.39239972 448.05975859 -157.83328624 431.82509629 -153.48120117 415.52368164 C-151.72554085 408.95311821 -149.8859839 402.40941277 -148 395.875 C-147.6687915 394.71943604 -147.33758301 393.56387207 -146.99633789 392.37329102 C-145.41266261 386.85856582 -143.81228133 381.34925792 -142.18359375 375.84765625 C-138.81219375 364.44670525 -135.62878501 353.02412224 -132.74780273 341.48803711 C-130.64415559 333.16640191 -128.25617557 324.94083234 -125.83764648 316.70605469 C-123.6108382 309.11754871 -121.43004957 301.51720301 -119.28125 293.90625 C-118.97062622 292.80631714 -118.66000244 291.70638428 -118.33996582 290.57312012 C-117.39254798 287.21562787 -116.44609069 283.85786644 -115.5 280.5 C-111.80065236 267.37027001 -108.08744772 254.2463931 -104.25 241.15625 C-101.89722368 233.12831356 -99.62229242 225.09227345 -97.5 217 C-95.0124108 207.63628554 -92.37061611 198.3300313 -89.625 189.0390625 C-87.47363791 181.72058968 -85.46121698 174.37152732 -83.5 167 C-81.26763333 158.61429897 -78.94980743 150.26234017 -76.5 141.9375 C-71.92113263 126.36758451 -67.54782583 110.74480572 -63.3125 95.078125 C-58.45067793 77.09878897 -53.57058482 59.12199657 -48.44393921 41.21606445 C-47.94763544 39.47504678 -47.4564303 37.73256589 -46.97085571 35.98852539 C-39.55876583 9.4233257 -39.55876583 9.4233257 -28.30859375 1.26953125 C-20.0835883 -3.25352589 -8.51580587 -4.35317443 0 0 Z " fill="#FDFDFD" transform="translate(2141,248)"/>
<path d="M0 0 C988.02 0 1976.04 0 2994 0 C2994 176.22 2994 352.44 2994 534 C2833.66089734 534.04037864 2833.66089734 534.04037864 2771.69524646 534.04816496 C2755.49796014 534.05020543 2739.30067384 534.05229295 2723.10338755 534.05452599 C2721.1450827 534.05479585 2719.18677785 534.05506422 2717.22847299 534.05533109 C2686.21035494 534.05957032 2655.19223876 534.06705289 2624.17412183 534.07629722 C2592.19766524 534.08580948 2560.22120967 534.09190363 2528.24475169 534.09391499 C2523.69053825 534.09420299 2519.1363248 534.09452862 2514.58211136 534.09487724 C2513.68609562 534.09494467 2512.79007989 534.09501209 2511.86691216 534.09508156 C2498.52478226 534.09617523 2485.18265531 534.10016289 2471.84052658 534.10573006 C2451.76526565 534.11395039 2431.69000853 534.11775042 2411.61474609 534.11352539 C2410.82900629 534.113369 2410.04326649 534.11321261 2409.23371639 534.11305148 C2358.15111357 534.1019966 2307.07658855 533.84740242 2256 533 C2254.77446692 528.9353467 2253.55052734 524.87021771 2252.32794857 520.8046751 C2251.91339287 519.42688264 2251.49843104 518.04921229 2251.08302593 516.67167568 C2247.8060726 505.80339888 2244.69899429 494.89897386 2241.76428223 483.93310547 C2240.51596345 479.27161522 2239.25202409 474.6143596 2237.98828125 469.95703125 C2237.61036942 468.56346909 2237.61036942 468.56346909 2237.224823 467.14175415 C2234.80493112 458.24053048 2232.29578604 449.36593762 2229.75 440.5 C2229.54515991 439.78624207 2229.34031982 439.07248413 2229.12927246 438.33709717 C2227.94350542 434.20787245 2226.75420531 430.0796736 2225.56317139 425.95196533 C2223.97530362 420.44837813 2222.39290704 414.94323329 2220.8125 409.4375 C2220.52793945 408.45394531 2220.24337891 407.47039062 2219.95019531 406.45703125 C2217.77956777 398.89768043 2215.73409749 391.30779034 2213.69921875 383.7109375 C2210.24743196 370.83654682 2206.64860365 358.00729861 2203 345.1875 C2201.68825124 340.57437519 2200.37715424 335.96106551 2199.06640625 331.34765625 C2198.73355118 330.17676453 2198.40069611 329.0058728 2198.05775452 327.79949951 C2195.99298102 320.52717796 2193.9486279 313.24945124 2191.92098999 305.96669006 C2190.58541881 301.17047347 2189.2438822 296.37593347 2187.90209961 291.58145142 C2187.26732397 289.30685879 2186.63540913 287.03146553 2186.0065918 284.75521851 C2177.7720581 253.21768128 2177.7720581 253.21768128 2156 230 C2143.58987235 223.04038621 2129.43711134 220.96799602 2115.46875 223.6875 C2101.15895269 227.77601352 2090.5355685 234.69190838 2082.84790039 247.50317383 C2080.78277398 251.41106201 2079.18458766 255.33170901 2077.66796875 259.4765625 C2077.21498665 260.71302017 2077.21498665 260.71302017 2076.75285339 261.97445679 C2073.16316162 272.02174263 2070.4986759 282.30754506 2067.8125 292.625 C2063.6470814 308.53935336 2059.18282202 324.34391023 2054.53839684 340.12383842 C2050.6789487 353.23708137 2046.86978524 366.36302453 2043.1328125 379.51171875 C2042.76922229 380.79101006 2042.76922229 380.79101006 2042.39828682 382.09614563 C2040.89697458 387.38092355 2039.39837987 392.66646938 2037.90045929 397.95220947 C2036.83946576 401.69466969 2035.77684479 405.43666711 2034.71426964 409.17867851 C2029.24457485 428.44233487 2023.79354362 447.71115763 2018.37521744 466.98932838 C2017.60207009 469.73993113 2016.8285425 472.49042667 2016.05490112 475.2408905 C2015.55204869 477.02883509 2015.0492104 478.81678366 2014.54638672 480.60473633 C2014.179222 481.9103044 2014.179222 481.9103044 2013.80463982 483.24224758 C2012.36739805 488.35444117 2010.93367192 493.46760509 2009.50260544 498.58153057 C2008.6195428 501.73472198 2007.73371201 504.88713112 2006.84721375 508.03935814 C2006.44042157 509.48827462 2006.03484937 510.9375343 2005.63063049 512.38717079 C2005.07807465 514.36840131 2004.52121498 516.34837576 2003.96337891 518.328125 C2003.65461823 519.4305957 2003.34585754 520.53306641 2003.02774048 521.66894531 C2002.23720492 524.23118473 2001.38391618 526.70415956 2000.43576622 529.20819092 C2000.16660247 529.92063335 1999.89743872 530.63307579 1999.6201185 531.36710739 C1999.41547939 531.90596195 1999.21084029 532.44481651 1999 533 C1956.0018676 533.97757992 1913.02292466 534.14397395 1870.0156062 534.12354875 C1860.12607507 534.11907743 1850.23654673 534.12068893 1840.34701505 534.12234976 C1821.87875479 534.12528661 1803.41049772 534.12357822 1784.94223785 534.11920547 C1766.26857784 534.11480377 1747.59491947 534.1126356 1728.92125893 534.11310768 C1727.14204808 534.11315072 1727.14204808 534.11315072 1725.32689358 534.11319463 C1719.27713998 534.11335103 1713.22738639 534.11354298 1707.1776328 534.11374746 C1663.55938943 534.1151494 1619.94114751 534.11174358 1576.32290459 534.10573006 C1565.57335242 534.10425065 1554.82380025 534.10278922 1544.07424808 534.10139394 C1543.40587557 534.10130717 1542.73750305 534.1012204 1542.04887683 534.10113101 C1510.99529254 534.09712175 1479.94170828 534.0957006 1448.88812376 534.09492797 C1446.85322256 534.09487721 1444.81832136 534.09482524 1442.78342016 534.09477296 C1430.51173095 534.09445883 1418.24004174 534.09417147 1405.96835252 534.09391499 C1375.47111746 534.09327643 1344.97388242 534.09231715 1314.47664738 534.09113979 C1313.78262711 534.09111316 1313.08860685 534.09108653 1312.37355567 534.09105909 C1267.48318279 534.08933381 1222.59281012 534.08628924 1177.7024374 534.08213139 C1176.98662536 534.0820651 1176.27081332 534.08199881 1175.53331 534.08193051 C1153.74700112 534.07991014 1131.96069225 534.07779165 1110.17438338 534.07565394 C1086.0658202 534.0732888 1061.95725703 534.07094042 1037.84869385 534.06866455 C1037.12366559 534.06859605 1036.39863733 534.06852755 1035.65163852 534.06845698 C966.69240416 534.06194735 897.73316972 534.05814295 828.77393513 534.05503077 C825.85031859 534.05489862 822.92670205 534.0547657 820.00308551 534.05463275 C793.09780538 534.05340927 766.19252525 534.05221744 739.28724512 534.05106533 C738.5717622 534.05103469 737.85627927 534.05100405 737.11911505 534.05097248 C734.95282439 534.05087972 732.78653372 534.05078697 730.62024306 534.05069422 C672.10854403 534.04818887 613.59684502 534.04540768 555.08514601 534.04244758 C553.02102277 534.04234323 550.95689952 534.04223909 548.89277627 534.04213501 C481.85456805 534.0387539 414.81635988 534.03488529 294.62657166 534.02565002 C291.20985818 534.02537919 287.7931447 534.02510836 284.37643122 534.02483763 C189.58428742 534.01728936 94.79214372 534.00848121 0 534 C0 357.78 0 181.56 0 0 Z " fill="#FDFDFD" transform="translate(0,0)"/>
<path d="M0 0 C657.36 0 1314.72 0 1992 0 C1990.70190039 6.49049806 1989.34236382 12.76822045 1987.55859375 19.11328125 C1987.20007828 20.40554123 1987.20007828 20.40554123 1986.83432007 21.72390747 C1986.03884563 24.58774842 1985.23820189 27.45011659 1984.4375 30.3125 C1983.86061781 32.38476256 1983.28404775 34.45711204 1982.70776367 36.52954102 C1981.46382083 41.00041682 1980.21759158 45.47064705 1978.96972656 49.94042969 C1976.97210638 57.09688969 1974.98188581 64.25539673 1972.9921875 71.4140625 C1968.85342384 86.29945964 1964.70157468 101.18118196 1960.54208374 116.06079865 C1960.00951836 117.96594988 1959.47704835 119.87112777 1958.94458008 121.77630615 C1946.35984708 166.79382469 1933.53492509 211.74199344 1920.66984558 256.68008423 C1918.01538623 265.95264255 1915.36381117 275.22601117 1912.71777344 284.50097656 C1912.17646925 286.39779847 1911.63515869 288.29461856 1911.09384155 290.19143677 C1910.08304063 293.73344509 1909.07308503 297.27569287 1908.06362915 300.81808472 C1905.80282635 308.74541953 1903.52785299 316.66855508 1901.21728516 324.58154297 C1901.00842871 325.30140947 1900.79957226 326.02127598 1900.58438683 326.76295662 C1899.11652236 331.76695528 1899.11652236 331.76695528 1898 334 C1850.15 334 1802.3 334 1753 334 C1750 325 1750 325 1748.640625 320.640625 C1743.24780739 303.44775824 1736.72559263 289.1550413 1720.58984375 279.765625 C1708.46945514 273.49404792 1693.89631641 271.995493 1680.62890625 275.12109375 C1665.38222566 280.21842381 1654.44804087 289.09173024 1647.25390625 303.49609375 C1642.62774018 313.34334313 1639.64496252 323.468905 1637 334 C1633.74603459 334.72364895 1630.73542892 335.12524322 1627.40404135 335.12649983 C1626.05426455 335.13063945 1626.05426455 335.13063945 1624.67721954 335.13486269 C1623.69577117 335.13280737 1622.71432281 335.13075205 1621.70313358 335.12863445 C1620.65068188 335.13038749 1619.59823018 335.13214053 1618.513886 335.13394669 C1614.96375792 335.13862326 1611.41367049 335.13613692 1607.86354065 335.13371277 C1605.30200016 335.1355799 1602.74045996 335.13788021 1600.17892021 335.14057809 C1594.59747506 335.14573534 1589.01603859 335.14714873 1583.43459129 335.14612198 C1575.13483742 335.14459889 1566.83509318 335.1487547 1558.53534117 335.1539966 C1542.85101806 335.16367545 1527.16669822 335.16648103 1511.48237247 335.16705366 C1499.3729873 335.16751289 1487.26360342 335.16956956 1475.15421867 335.17275429 C1471.67085058 335.1736518 1468.18748248 335.17454162 1464.70411438 335.17542917 C1463.83818813 335.17565021 1462.97226188 335.17587126 1462.08009545 335.17609901 C1437.71845681 335.18225445 1413.35681862 335.18619944 1388.99517918 335.18575573 C1388.07640435 335.18574015 1387.15762951 335.18572457 1386.21101302 335.18570852 C1381.55407783 335.18562541 1376.89714263 335.18552637 1372.24020744 335.18542381 C1371.31529079 335.18540387 1370.39037414 335.18538392 1369.43742972 335.18536337 C1367.56702308 335.18532294 1365.69661643 335.18528114 1363.82620979 335.18523798 C1334.71673578 335.18462504 1305.60727341 335.19213479 1276.49780273 335.20581055 C1243.8087487 335.22116161 1211.11970232 335.22977738 1178.43064445 335.22884732 C1174.946962 335.22877269 1171.46327955 335.22872399 1167.97959709 335.22869301 C1167.12179768 335.22868135 1166.26399827 335.2286697 1165.38020494 335.22865769 C1151.55969085 335.22862688 1137.73918684 335.2350201 1123.91867574 335.24362527 C1110.03644659 335.2520903 1096.15423223 335.25310073 1082.27200193 335.24651595 C1074.01929025 335.24281275 1065.76662345 335.24467556 1057.5139165 335.25445829 C1051.36011443 335.26113821 1045.20636058 335.25742597 1039.0525608 335.24958507 C1036.5566574 335.24803915 1034.0607492 335.24990688 1031.56485147 335.25544515 C1028.18405573 335.26245291 1024.80349502 335.25725279 1021.42270756 335.24888897 C1020.44360036 335.25385715 1019.46449316 335.25882533 1018.45571604 335.26394406 C1013.61299324 335.23844758 1009.48433826 335.07022263 1005 333 C1003.70349121 330.80477905 1003.70349121 330.80477905 1002.92773438 328.04443359 C1002.6247644 327.01387848 1002.32179443 325.98332336 1002.00964355 324.92153931 C1001.70739868 323.80016571 1001.40515381 322.67879211 1001.09375 321.5234375 C1000.7589563 320.35992767 1000.4241626 319.19641785 1000.07922363 317.99765015 C999.03086637 314.33759638 998.01559324 310.66925989 997 307 C996.36498017 304.78071463 995.72705572 302.56225789 995.0859375 300.34472656 C993.51548222 294.89741986 991.9736228 289.44257066 990.44290161 283.98397827 C989.47281803 280.52816738 988.49675321 277.07409087 987.51928711 273.62036133 C984.81614354 264.06139888 982.11905942 254.50212198 979.53515625 244.91015625 C973.77498288 223.69148865 967.71591707 206.82505402 948 195 C935.71156203 189.29965995 918.98574697 187.11980298 905.9375 191.625 C904.26750869 192.364346 902.61966895 193.15609482 901 194 C900.14148438 194.43570313 899.28296875 194.87140625 898.3984375 195.3203125 C884.7907684 202.84358575 877.83488538 214.47511787 872.640625 228.6953125 C872.33742844 229.52340927 872.03423187 230.35150604 871.72184753 231.20469666 C868.4849306 240.20375967 865.8713568 249.35249262 863.3125 258.5625 C862.80492237 260.36676298 862.2965214 262.17079452 861.78735352 263.97460938 C860.72843774 267.72844694 859.67304263 271.48324754 858.62011719 275.23876953 C856.18382023 283.91685413 853.70328245 292.58231855 851.22421265 301.2482605 C850.45522383 303.93800612 849.68794675 306.62823437 848.92114258 309.31860352 C847.80668953 313.22767417 846.68591917 317.13488224 845.56121826 321.04101562 C845.0568383 322.80160065 844.56130173 324.56471345 844.06689453 326.328125 C843.8089209 327.23046875 843.55094727 328.1328125 843.28515625 329.0625 C843.07898682 329.79597656 842.87281738 330.52945312 842.66040039 331.28515625 C842 333 842 333 840 335 C837.5408858 335.24934233 837.5408858 335.24934233 834.36549842 335.24839699 C832.55265087 335.25513887 832.55265087 335.25513887 830.70318013 335.26201695 C829.34722376 335.25688467 827.99126807 335.2515708 826.63531303 335.24609566 C825.20042141 335.24757359 823.76553047 335.24992931 822.33064157 335.25308865 C818.35590263 335.25926087 814.38126505 335.25284837 810.40653362 335.24453239 C806.09440858 335.23769308 801.78229433 335.2424 797.47016728 335.24568737 C789.90218085 335.24984528 782.33422578 335.24652957 774.76624298 335.23841095 C763.51282257 335.22637215 752.25942205 335.22573642 741.00599637 335.22749493 C722.07864648 335.23012675 703.15131053 335.2234247 684.22396469 335.21146011 C665.47509569 335.19963864 646.72623248 335.19193077 627.97735977 335.18975449 C626.23076905 335.18954827 626.23076905 335.18954827 624.44889366 335.18933788 C618.53587386 335.18866125 612.62285405 335.18805847 606.70983423 335.18748413 C564.79401965 335.18327983 522.87821265 335.16979543 480.96240234 335.15087891 C440.23388713 335.13251938 399.50537399 335.11834758 358.77685547 335.10986328 C357.52211156 335.10960023 356.26736764 335.10933718 354.97460118 335.10906615 C342.3743045 335.10642918 329.77400781 335.10387755 317.1737111 335.10138843 C291.50391967 335.09631558 265.83412838 335.09067308 240.16433716 335.08468628 C238.98400104 335.0844117 237.80366493 335.08413712 236.58756105 335.08385422 C200.39836946 335.07540561 164.20917916 335.06454179 128.01998901 335.05130005 C126.99224699 335.05092493 125.96450497 335.05054982 124.90561926 335.05016333 C83.27041225 335.03493032 41.63520625 335.01714414 0 335 C0 224.45 0 113.9 0 0 Z " fill="#FDFDFD" transform="translate(0,557)"/>
<path d="M0 0 C275.22 0 550.44 0 834 0 C829.28004335 20.05981574 829.28004335 20.05981574 826.75 29.5 C826.26116333 31.32821289 826.26116333 31.32821289 825.76245117 33.19335938 C819.70194818 55.73536762 813.28249236 78.18160054 806.94537354 100.64691162 C805.84302461 104.55676655 804.742974 108.46726444 803.64334106 112.37788391 C793.62133536 148.01231444 783.41432208 183.59439916 773.23603821 219.18441772 C770.42013289 229.03098759 767.60645186 238.87818467 764.796875 248.7265625 C763.63547479 252.79689159 762.4739981 256.86719884 761.3125 260.9375 C761.04427429 261.87763947 760.77604858 262.81777893 760.49969482 263.78640747 C757.45547252 274.45351033 754.39233861 285.11491253 751.3046875 295.76953125 C750.9995372 296.82305283 750.6943869 297.8765744 750.37998962 298.96202087 C748.92149525 303.99632522 747.4606526 309.02992557 745.99536133 314.06225586 C745.47992252 315.83836209 744.96453852 317.61448423 744.44921875 319.390625 C744.21455902 320.19325272 743.97989929 320.99588043 743.73812866 321.8228302 C743.52250275 322.56739975 743.30687683 323.3119693 743.0847168 324.07910156 C742.80497261 325.03988617 742.80497261 325.03988617 742.51957703 326.02008057 C741.91517562 328.32323493 741.4669797 330.66510149 741 333 C496.47 333 251.94 333 0 333 C0 223.11 0 113.22 0 0 Z " fill="#FDFDFD" transform="translate(0,916)"/>
<path d="M0 0 C0.78801823 -0.00016613 1.57603645 -0.00033225 2.38793402 -0.00050341 C22.56532622 -0.00451216 42.74271359 0.00049864 62.92010402 0.0088899 C76.31891966 0.0144621 89.71773368 0.01764053 103.11655045 0.01864815 C104.01508685 0.01871689 104.91362326 0.01878563 105.83938805 0.01885645 C110.40539855 0.01919493 114.97140906 0.01949626 119.53741957 0.01978333 C151.60567687 0.02186563 183.67393163 0.02855136 215.7421875 0.03808594 C246.83268216 0.04731891 277.92317612 0.05436151 309.01367188 0.05859375 C310.97984175 0.05886439 312.94601162 0.0591351 314.9121815 0.05940586 C330.89650816 0.06159568 346.88083484 0.06363785 362.86516152 0.06564435 C436.34126243 0.07497341 509.8173567 0.0950589 583.29345703 0.11352539 C583.29345703 110.66352539 583.29345703 221.21352539 583.29345703 335.11352539 C373.41345703 335.11352539 163.53345703 335.11352539 -52.70654297 335.11352539 C-60.33431479 308.96116488 -60.33431479 308.96116488 -64.01904297 296.23852539 C-66.56561076 287.44597158 -69.13205932 278.65979964 -71.73293209 269.8831501 C-75.73239831 256.381618 -79.64676007 242.86204463 -83.39794922 229.28930664 C-83.83049724 227.72796639 -84.26315794 226.16665735 -84.69592285 224.6053772 C-85.81388507 220.57089529 -86.93037964 216.53600909 -88.04628372 212.50095749 C-89.105767 208.66997079 -90.165834 204.83914562 -91.22583008 201.00830078 C-91.43086183 200.26723556 -91.63589357 199.52617033 -91.8471384 198.76264858 C-93.50758791 192.76134791 -95.16916523 186.76035996 -96.83161831 180.75961399 C-97.87464288 176.99433891 -98.91665461 173.22878902 -99.95654297 169.46264648 C-104.41540232 153.31702016 -108.93890224 137.19671147 -113.69873047 121.13696289 C-118.72049902 104.19333099 -123.4866779 87.18332807 -128.19812012 70.15112305 C-129.04515989 67.09205089 -129.89530101 64.03384421 -130.74541092 60.97562408 C-135.00490568 45.64881069 -139.21909465 30.31072835 -143.32373047 14.94165039 C-143.49849033 14.28845573 -143.6732502 13.63526108 -143.85330582 12.96227264 C-144.33831297 11.14754089 -144.82107684 9.33221002 -145.30371094 7.5168457 C-145.57601532 6.49278625 -145.8483197 5.46872681 -146.12887573 4.41363525 C-146.70654297 2.11352539 -146.70654297 2.11352539 -146.70654297 1.11352539 C-97.80677763 0.17807979 -48.90707204 0.00974972 0 0 Z " fill="#FDFDFD" transform="translate(2410.70654296875,556.886474609375)"/>
<path d="M0 0 C168.99807821 -0.04037864 168.99807821 -0.04037864 234.0143888 -0.04816496 C251.01230887 -0.0502058 268.01022894 -0.05229351 285.00814898 -0.05452599 C287.0637073 -0.05479584 289.11926561 -0.05506421 291.17482392 -0.05533109 C323.83693115 -0.05958386 356.49903662 -0.06707697 389.16114279 -0.07629722 C422.7819967 -0.08577068 456.40284965 -0.09189485 490.02370488 -0.09391499 C494.79261549 -0.09420307 499.5615261 -0.0945287 504.33043671 -0.09487724 C505.73806593 -0.09497838 505.73806593 -0.09497838 507.1741321 -0.09508156 C522.16765125 -0.09625477 537.16116737 -0.10086953 552.15468529 -0.10683203 C567.29630953 -0.11277777 582.43793083 -0.11495359 597.5795562 -0.11350138 C605.75592727 -0.11281639 613.93229032 -0.11365235 622.10865974 -0.11920547 C659.08294929 -0.14340466 696.03421335 0.09788455 733 1 C732.69028785 2.58161693 732.37872159 4.16287085 732.06639099 5.74397278 C731.89308982 6.62457273 731.71978865 7.50517267 731.54123592 8.41245747 C730.78307453 12.037078 729.8105256 15.58012987 728.78515625 19.13671875 C728.57372482 19.88221481 728.3622934 20.62771088 728.14445496 21.39579773 C727.45400389 23.82738627 726.75823581 26.25741885 726.0625 28.6875 C725.57283137 30.40890012 725.08358138 32.13041937 724.59472656 33.85205078 C723.57730902 37.43389594 722.55809267 41.01522188 721.53759766 44.59619141 C719.32715265 52.35797276 717.13825888 60.12582472 714.94937134 67.89370728 C714.2502271 70.37419426 713.55037785 72.85448136 712.8503418 75.3347168 C710.62292319 83.2282409 708.40435467 91.12406551 706.20385742 99.02514648 C700.0562546 121.08951773 693.64616489 143.08068756 687 165 C686.12859375 164.46890625 685.2571875 163.9378125 684.359375 163.390625 C669.08772917 154.24406328 655.00528933 150.45358376 637.17578125 153.6953125 C622.93995052 157.7049311 611.9903448 166.16506397 604.54394531 178.92529297 C601.41224167 185.16195896 599.38397552 191.8106435 597.25 198.4375 C596.72910711 200.0278925 596.20802609 201.61822339 595.68676758 203.20849609 C588.72277926 224.61082426 582.73961476 246.29925891 576.97460938 268.05053711 C571.83868187 287.26726815 566.2186445 306.35622024 560.72489929 325.47294617 C559.81413817 328.64792842 558.90725333 331.82401383 558 335 C495.30609128 335.90264987 432.6231366 336.14038559 369.92330405 336.10353777 C357.05693557 336.09618739 344.19056811 336.09487034 331.32419783 336.09374207 C308.40135126 336.09158292 285.47850862 336.08501962 262.55566406 336.07543945 C240.36100279 336.06617469 218.16634252 336.05914816 195.97167969 336.05493164 C194.56294974 336.054661 193.15421979 336.0543903 191.74548984 336.05411953 C180.82958478 336.05203238 169.91367969 336.05008224 158.9977746 336.04816496 C105.99851303 336.03882462 52.9992607 336.0186851 0 336 C0 225.12 0 114.24 0 0 Z " fill="#FDFDFD" transform="translate(0,1273)"/>
<path d="M0 0 C207.57 0 415.14 0 629 0 C629 109.89 629 219.78 629 333 C452.78 333 276.56 333 95 333 C86.85588235 308.56764706 86.85588235 308.56764706 84 298.9375 C83.6380957 297.72312256 83.27619141 296.50874512 82.90332031 295.25756836 C73.97617521 265.20863135 65.3431051 235.071959 57.04904175 204.84240723 C51.77316102 185.62652194 46.30098334 166.46845038 40.8125 147.3125 C34.10623538 123.90270284 27.44011206 100.48471303 21 77 C19.60535592 71.91633892 18.20968871 66.83296252 16.8125 61.75 C16.48886475 60.57042725 16.16522949 59.39085449 15.83178711 58.17553711 C13.74198806 50.59115029 11.55134883 43.04154611 9.3125 35.5 C6.31112123 25.37954361 3.77331268 15.18596249 1.46142578 4.88745117 C1.05761477 3.23567185 0.53772095 1.61316286 0 0 Z " fill="#FDFDFD" transform="translate(2365,916)"/>
<path d="M0 0 C12.87057002 0.00728921 25.74113897 0.00866245 38.61171076 0.00979571 C61.549538 0.01196471 84.48736114 0.01855642 107.42518635 0.02809832 C129.65891012 0.0373364 151.89263291 0.04437644 174.12635822 0.04860613 C175.53325324 0.04887677 176.94014827 0.04914748 178.34704329 0.04941824 C189.24574853 0.05150487 200.1444538 0.05345521 211.04315908 0.05537281 C264.12859403 0.06474449 317.21401985 0.08487711 370.29945393 0.10353777 C370.29945393 110.98353777 370.29945393 221.86353777 370.29945393 336.10353777 C315.23070393 336.12416277 260.16195393 336.14478777 203.42445393 336.16603777 C186.2323885 336.17514178 169.04032307 336.18424578 151.32728596 336.19362566 C125.65956684 336.20138159 125.65956684 336.20138159 114.74960108 336.20125005 C113.90110376 336.20124095 113.05260643 336.20123186 112.17839707 336.20122248 C111.31342396 336.20121309 110.44845084 336.2012037 109.55726643 336.20119402 C108.2149555 336.20121723 108.2149555 336.20121723 106.84552718 336.2012409 C49.65857953 336.20195333 -7.52012114 336.07135703 -64.70054607 335.10353777 C-64.92079701 334.27481472 -65.14104794 333.44609167 -65.36797314 332.5922558 C-71.05116476 311.17828586 -71.05116476 311.17828586 -76.91929607 289.81447527 C-77.26633587 288.56937182 -77.61337566 287.32426836 -77.97093182 286.0414345 C-78.68883992 283.46613764 -79.40802167 280.89120651 -80.12779217 278.3164284 C-81.20221139 274.47257992 -82.27384135 270.62796196 -83.34507732 266.78322527 C-87.74057293 251.02350235 -92.20209724 235.28353242 -96.71107464 219.55593035 C-102.22807731 200.30640138 -107.71737928 181.04894643 -113.18272381 161.78469012 C-113.90401273 159.24347107 -114.62602012 156.70245585 -115.34873943 154.16164324 C-119.03980369 141.18432344 -122.69943804 128.20234996 -126.17710857 115.16603777 C-129.74011534 101.81929563 -133.53517081 88.54104156 -137.35270672 75.26549456 C-139.33291849 68.37864871 -141.30374246 61.48911189 -143.27476482 54.59963152 C-143.46789257 53.92473744 -143.66102032 53.24984335 -143.86000042 52.55449793 C-147.22004205 40.8106254 -150.5488955 29.05845583 -153.82554607 17.29103777 C-154.03345776 16.54783282 -154.24136944 15.80462786 -154.45558148 15.03890154 C-155.02183818 13.01304297 -155.58458864 10.98625147 -156.14585857 8.95900652 C-156.45023846 7.86225603 -156.75461834 6.76550555 -157.06822186 5.63552019 C-157.70054607 3.10353777 -157.70054607 3.10353777 -157.70054607 1.10353777 C-105.13709861 -0.11782405 -52.57457334 -0.03061706 0 0 Z " fill="#FDFDFD" transform="translate(2623.7005460746586,1272.8964622281492)"/>
<path d="M0 0 C203.28 0 406.56 0 616 0 C614.76363187 6.18184064 613.51119605 12.19225203 611.84765625 18.24609375 C611.63621979 19.02496948 611.42478333 19.80384521 611.2069397 20.60632324 C610.4961778 23.2178403 609.77968859 25.82774102 609.0625 28.4375 C608.68226181 29.82716476 608.68226181 29.82716476 608.29434204 31.24490356 C601.43124341 56.31622304 594.2929566 81.31088182 587.17506981 106.31075096 C584.3066919 116.38600989 581.45623198 126.46611596 578.62109375 136.55078125 C577.93730227 138.97991215 577.25346551 141.40903031 576.56958008 143.83813477 C575.61149829 147.24138562 574.65442448 150.64489756 573.70126343 154.04953003 C562.50518404 194.03487259 562.50518404 194.03487259 551 202 C544.24417723 205.63408456 537.63696675 207.36114646 530 206 C520.23982645 202.57728734 514.12995222 197.52859712 509.5078125 188.328125 C508.70681852 186.63858769 507.91273048 184.94576188 507.125 183.25 C499.64538536 167.79859831 490.87629861 154.92392522 474 149 C459.7416906 144.7598326 444.27157403 145.50978113 431.11328125 152.54296875 C403.22017728 169.17228176 398.97116966 207.17381719 390.94775391 236.19726562 C385.94842696 254.27670761 380.78601098 272.30841921 375.60717773 290.3371582 C374.95923078 292.59579651 374.31152111 294.85450291 373.6640625 297.11328125 C373.35314163 298.19716629 373.04222076 299.28105133 372.72187805 300.39778137 C370.34206239 308.72578037 368.05032615 317.07607369 365.83291626 325.44880676 C365.60494354 326.29996567 365.37697083 327.15112457 365.14208984 328.02807617 C364.94449066 328.77465988 364.74689148 329.52124359 364.54330444 330.29045105 C364 332 364 332 363 333 C361.55607056 333.09665268 360.10742261 333.12371812 358.66026211 333.12304783 C357.71775425 333.12503888 356.7752464 333.12702993 355.8041777 333.12908131 C354.7565345 333.12616847 353.7088913 333.12325563 352.62950134 333.12025452 C351.52608778 333.12110894 350.42267422 333.12196337 349.28582388 333.12284368 C345.55763929 333.12450172 341.82949887 333.11897183 338.10131836 333.11352539 C335.44110512 333.11324356 332.78089466 333.11335705 330.12068176 333.1139679 C324.37757338 333.11449332 318.63447631 333.11134458 312.89137077 333.10573006 C304.58771185 333.09761757 296.28405843 333.0950001 287.98039598 333.09374207 C274.50963262 333.09155115 261.03887531 333.08488999 247.56811523 333.07543945 C234.47924836 333.06626636 221.39038311 333.05918502 208.30151367 333.05493164 C207.49528759 333.05466892 206.68906151 333.05440619 205.85840433 333.05413551 C201.81397574 333.05283051 197.76954713 333.05156679 193.72511852 333.05032361 C160.15007463 333.03994976 126.57503805 333.02233037 93 333 C92.51484295 331.5543765 92.03052717 330.10847064 91.54656982 328.66244507 C91.27677685 327.85728643 91.00698387 327.0521278 90.72901535 326.22257042 C89.96958041 323.9072589 89.30244072 321.58829072 88.703125 319.2265625 C88.4747998 318.34726074 88.24647461 317.46795898 88.01123047 316.56201172 C87.76002441 315.59279785 87.50881836 314.62358398 87.25 313.625 C84.02325505 301.3960911 80.45033987 289.27874564 76.84939575 277.15563965 C71.4428447 258.95261926 66.21608654 240.72019355 61.3125 222.375 C57.427044 207.83921581 53.41068511 193.36046844 49.125 178.9375 C44.39686619 163.01822218 39.96297799 147.02981128 35.625 131 C30.74874715 112.98419047 25.77605109 95.0017906 20.625 77.0625 C20.33313812 76.04581238 20.04127625 75.02912476 19.74057007 73.98162842 C18.60851652 70.0395721 17.47584631 66.09769396 16.34208679 62.15612793 C11.41901673 45.03529308 6.52682063 27.90120318 1.9375 10.6875 C1.73310303 9.92775879 1.52870605 9.16801758 1.31811523 8.38525391 C0.560599 5.49814236 0 2.99967222 0 0 Z " fill="#FDFDFD" transform="translate(1013,916)"/>
<path d="M0 0 C5.40042383 0.00374401 10.80082921 0.00243123 16.20125234 -0.00180268 C58.6586895 -0.03430398 101.09371506 0.31685629 143.54378164 1.12856841 C143.23857911 2.85961035 142.93066621 4.59017452 142.62164724 6.32053924 C142.45047604 7.28429882 142.27930484 8.2480584 142.10294664 9.24102283 C141.26131354 13.5872425 140.09706956 17.82073597 138.89143789 22.07778716 C138.63588628 22.99579604 138.38033468 23.91380492 138.11703908 24.85963225 C137.28461072 27.84638579 136.44545005 30.83120232 135.60628164 33.81606841 C135.01574211 35.93034018 134.42574373 38.04476316 133.83626211 40.15933013 C132.93673762 43.38574955 132.03684603 46.61206139 131.13509023 49.83785796 C129.32791935 56.30370875 127.53617501 62.77346751 125.76643789 69.24966216 C125.55034872 70.04028045 125.33425954 70.83089873 125.11162221 71.64547515 C124.67981015 73.2256295 124.24801681 74.80578897 123.81624258 76.38595366 C118.71485574 95.04054423 113.45415269 113.64909824 108.17244375 132.25332427 C104.40213318 145.53757644 100.66835852 158.83118197 96.97499502 172.13702178 C92.76604364 187.29874582 88.44186791 202.41941078 83.97127187 217.50600982 C81.68675299 225.21850096 79.44523143 232.94019452 77.29378164 240.69106841 C74.0328896 252.41281794 70.73846134 264.12495563 67.41621816 275.82946563 C66.80182844 277.99745757 66.18938291 280.16600159 65.57905996 282.3351419 C62.70565478 292.54341168 59.81705485 302.73136423 56.31721914 312.74575591 C56.0855454 313.41308745 55.85387167 314.080419 55.61517751 314.76797271 C51.6545568 325.77255366 45.56498753 334.27131205 34.88753164 339.40591216 C24.49956655 343.69858597 13.30864464 345.17112001 2.48128164 341.37856841 C-1.51005386 339.68652515 -5.04797408 337.83967181 -8.45621836 335.12856841 C-8.99504649 334.71735747 -9.53387461 334.30614654 -10.08903086 333.88247466 C-24.48095142 321.4589558 -27.78433802 298.49742079 -32.65165293 281.00814605 C-33.83673135 276.76669446 -35.03760424 272.52974956 -36.2375294 268.29247832 C-41.77266572 248.74481496 -47.30035949 229.19382083 -52.58903086 209.57778716 C-52.82986903 208.6846028 -53.07070719 207.79141845 -53.31884348 206.8711679 C-53.79558527 205.10233186 -54.27229567 203.33348736 -54.74897349 201.56463408 C-59.6876121 183.24446911 -64.9890557 165.04938707 -70.42380869 146.87048125 C-76.9186574 125.13240365 -83.03217276 103.30361899 -89.00846446 81.41811919 C-90.99364707 74.15476804 -93.01063855 66.90030994 -95.0300709 59.64642119 C-95.63365551 57.47723273 -96.23605821 55.30771969 -96.8380543 53.1380899 C-98.74056065 46.2832971 -100.65027291 39.43062479 -102.57427561 32.58183074 C-103.51799098 29.22104053 -104.4588689 25.85945901 -105.39948618 22.49780059 C-105.85018546 20.89016057 -106.30228969 19.28291369 -106.75587046 17.67608428 C-107.38081185 15.46198373 -108.0010457 13.24661422 -108.62028086 11.03091216 C-108.97557871 9.76755034 -109.33087656 8.50418853 -109.69694102 7.20254302 C-110.45621836 4.12856841 -110.45621836 4.12856841 -110.45621836 1.12856841 C-73.63604121 0.09407358 -36.83096768 -0.02849555 0 0 Z " fill="#FDFDFC" transform="translate(1224.4562183618546,1272.8714315891266)"/>
<path d="M0 0 C42.9 0 85.8 0 130 0 C128.81201258 5.93993711 127.65176151 11.61309522 126.07421875 17.41796875 C125.89058777 18.09679108 125.70695679 18.7756134 125.51776123 19.4750061 C124.91109585 21.71344967 124.2994521 23.95049645 123.6875 26.1875 C123.24927288 27.7983784 122.81120766 29.40930085 122.37329102 31.02026367 C117.4094705 49.25276465 112.37358739 67.46572059 107.31217957 85.67134094 C105.85945373 90.8979846 104.41323624 96.12632387 102.97657776 101.35740662 C102.17311526 104.27926388 101.36447625 107.19967022 100.55447388 110.11972046 C100.02477053 112.03541626 99.50136541 113.95285024 98.97827148 115.87036133 C91.04535913 144.35321885 91.04535913 144.35321885 78.4375 151.5625 C70.90277896 154.97016278 62.0342432 155.78410689 54.125 152.9375 C41.74736159 145.26336419 37.26159508 134.21330755 33.28125 120.58203125 C32.95201538 119.48381546 32.62278076 118.38559967 32.28356934 117.25410461 C27.73082459 101.93617434 23.46470391 86.53305371 19.18218994 71.13793945 C18.04997818 67.07101292 16.91338183 63.00531212 15.77734375 58.93945312 C13.59210173 51.11546972 11.41437923 43.2894149 9.24023438 35.46234131 C8.21469626 31.77083458 7.18622383 28.08015239 6.15700531 24.38967037 C5.39532347 21.65645142 4.63583855 18.9226259 3.87702942 16.18860817 C3.35632545 14.31478568 2.83316127 12.4416474 2.30993652 10.56852722 C2.00334106 9.46156998 1.69674561 8.35461273 1.38085938 7.21411133 C1.11253296 6.24951492 0.84420654 5.28491852 0.56774902 4.29109192 C0 2 0 2 0 0 Z " fill="#FDFDFC" transform="translate(1760,916)"/>
<path d="M0 0 C1.32 0 2.64 0 4 0 C4 0.66 4 1.32 4 2 C5.010625 2.103125 6.02125 2.20625 7.0625 2.3125 C11.10855902 3.01895475 14.2508848 4.36402246 18 6 C23.06888377 7.12269213 28.00927678 7.144872 33.1716671 7.1386652 C34.09031195 7.14150742 35.00895681 7.14434964 35.95543939 7.14727798 C39.04430709 7.15562275 42.13313727 7.15689303 45.22201538 7.15821838 C47.45458681 7.16278388 49.68715739 7.16778388 51.91972697 7.17318195 C58.06301885 7.18677386 64.20630519 7.19418448 70.34960818 7.20060861 C76.29149138 7.20778673 82.2333648 7.21960943 88.17524037 7.23132664 C100.3302148 7.25513513 112.48519243 7.27434018 124.64017868 7.29092598 C136.67597265 7.30736417 148.71176062 7.32584574 160.74754715 7.34705925 C161.49576197 7.34837686 162.2439768 7.34969446 163.0148648 7.351052 C166.81463535 7.35775404 170.61440584 7.36449262 174.4141763 7.37124526 C201.3312875 7.41901442 228.24840429 7.4621977 255.16552734 7.50268555 C281.31592211 7.5420306 307.46631224 7.58345196 333.61669922 7.62768555 C334.82570077 7.62972934 334.82570077 7.62972934 336.0591266 7.63181442 C344.1532849 7.64549974 352.24744314 7.65922729 360.34160132 7.67298577 C376.83048649 7.70101267 393.31937213 7.72875774 409.80825806 7.7563324 C410.94546847 7.7582347 410.94546847 7.7582347 412.10565284 7.76017542 C462.73709438 7.84483818 513.36854643 7.92291034 564 8 C564 8.33 564 8.66 564 9 C510.9820259 9.01711444 457.96405155 9.03303557 404.94607544 9.04234314 C403.76948224 9.04255023 403.76948224 9.04255023 402.56911947 9.04276149 C385.52303549 9.04575424 368.47695148 9.04852445 351.43086743 9.05106533 C343.07175015 9.05231269 334.71263289 9.05360924 326.35351562 9.05493164 C325.5216728 9.0550624 324.68982997 9.05519316 323.83277979 9.05532788 C296.85920949 9.05959097 269.88564129 9.06710359 242.91207226 9.07629722 C215.19854232 9.08572593 187.48501354 9.09188454 159.77148202 9.09391499 C155.85920177 9.09420315 151.94692152 9.09452879 148.03464127 9.09487724 C146.87962585 9.09497838 146.87962585 9.09497838 145.70127678 9.09508156 C133.29476676 9.09626433 120.88826032 9.10090523 108.48175176 9.10683203 C96.01597862 9.11271361 83.55020903 9.1149694 71.08443455 9.11350138 C64.32739785 9.11280668 57.57037229 9.11386608 50.81333733 9.11920547 C44.63260527 9.12405399 38.45189085 9.12432901 32.27115799 9.12089889 C30.0301505 9.12047464 27.78914193 9.12175813 25.54813658 9.12488318 C22.51112337 9.12887344 19.47417454 9.12674683 16.4371624 9.12304783 C15.55930407 9.12567484 14.68144574 9.12830186 13.77698565 9.13100848 C9.43106376 9.11897917 5.24380914 9.05947658 1 8 C-0.35439668 5.29120665 -0.06501451 2.99066732 0 0 Z " fill="#E3CCBC" transform="translate(0,1624)"/>
<path d="M0 0 C1.32 0 2.64 0 4 0 C4 0.66 4 1.32 4 2 C5.010625 2.103125 6.02125 2.20625 7.0625 2.3125 C11.10855902 3.01895475 14.2508848 4.36402246 18 6 C22.70845232 7.01552223 27.3279958 7.15188931 32.1244812 7.15821838 C32.92590046 7.16315636 33.72731972 7.16809434 34.55302441 7.17318195 C37.22919526 7.18849796 39.90534222 7.19690153 42.58154297 7.20532227 C44.50358794 7.21490543 46.42563082 7.22491577 48.34767151 7.23532104 C53.55994652 7.26232868 58.77223054 7.28336066 63.98453665 7.30332303 C69.43380973 7.32520814 74.88305515 7.35258447 80.33230591 7.37937927 C90.64876222 7.42927202 100.96523392 7.47422353 111.28172028 7.51740164 C123.02772435 7.56680322 134.77370066 7.62171052 146.51967788 7.67708123 C170.67975935 7.7908488 194.83986745 7.89769922 219 8 C219 8.33 219 8.66 219 9 C191.46225889 9.02335114 163.92451926 9.04099008 136.38677025 9.05181217 C123.60077967 9.05697041 110.81479523 9.06400415 98.02880859 9.07543945 C86.88571151 9.08540067 75.74261888 9.09185687 64.59951746 9.09408849 C58.69831137 9.09539315 52.79711801 9.09846357 46.89591599 9.10573006 C41.34252328 9.11251292 35.78914856 9.11461232 30.23575211 9.11310768 C28.19677381 9.11338299 26.15779491 9.11537467 24.11882019 9.11920547 C21.33581362 9.12417807 18.55287508 9.12298507 15.76986694 9.12025452 C14.96246295 9.12316736 14.15505896 9.1260802 13.32318819 9.12908131 C9.12509935 9.11794284 5.10280324 9.00756942 1 8 C-0.35439668 5.29120665 -0.06501451 2.99066732 0 0 Z " fill="#E9D8CC" transform="translate(0,1624)"/>
<path d="M0 0 C0.57548584 0.28955566 1.15097168 0.57911133 1.74389648 0.87744141 C8.85415179 4.415257 15.67546228 6.89884092 23.4375 8.625 C24.31470703 8.82867188 25.19191406 9.03234375 26.09570312 9.2421875 C32.04136691 10.60920821 38.01217516 11.83286113 44 13 C44 13.33 44 13.66 44 14 C40.85424793 14.05896868 37.7086414 14.09391603 34.5625 14.125 C33.24475586 14.15013672 33.24475586 14.15013672 31.90039062 14.17578125 C23.1361284 14.24046215 15.94781323 12.58430793 8 9 C6.67723944 8.62691369 5.34767923 8.26953585 4 8 C4 7.34 4 6.68 4 6 C2.68 6 1.36 6 0 6 C0 4.02 0 2.04 0 0 Z " fill="#CEB189" transform="translate(0,1618)"/>
<path d="M0 0 C1.32 0 2.64 0 4 0 C4 0.66 4 1.32 4 2 C5.010625 2.103125 6.02125 2.20625 7.0625 2.3125 C11 3 11 3 14 4.4375 C19.78770672 7.16427176 26.70101636 7.310922 33 8 C33 8.33 33 8.66 33 9 C28.79168132 9.02914348 24.58338878 9.04684712 20.375 9.0625 C18.59029297 9.07506836 18.59029297 9.07506836 16.76953125 9.08789062 C15.61582031 9.09111328 14.46210938 9.09433594 13.2734375 9.09765625 C11.68668213 9.10551147 11.68668213 9.10551147 10.06787109 9.11352539 C6.94155296 8.99783719 4.04890691 8.70661721 1 8 C-0.35439668 5.29120665 -0.06501451 2.99066732 0 0 Z " fill="#F2EAE3" transform="translate(0,1624)"/>
<path d="M0 0 C1.32 0 2.64 0 4 0 C4 0.66 4 1.32 4 2 C5.010625 2.103125 6.02125 2.20625 7.0625 2.3125 C11.10855902 3.01895475 14.2508848 4.36402246 18 6 C19.98821313 6.39764263 21.98732362 6.75455166 24 7 C24 7.33 24 7.66 24 8 C14.44229897 8.91509904 8.19942221 6.88476217 0 2 C0 1.34 0 0.68 0 0 Z " fill="#E4D5C1" transform="translate(0,1624)"/>
<path d="M0 0 C3.40734838 0.42591855 6.2366905 1.0946762 9.4375 2.375 C15.67555045 4.85312963 22.42213361 5.79234484 29 7 C29 7.33 29 7.66 29 8 C19.74874097 8.29369076 12.40754945 6.79163995 4 3 C2.67723944 2.62691369 1.34767923 2.26953585 0 2 C0 1.34 0 0.68 0 0 Z " fill="#D6C0A1" transform="translate(4,1624)"/>
<path d="M0 0 C0.77387773 2.27304895 1.12944984 3.58096448 0.41088867 5.90698242 C-0.08060669 6.87148315 -0.08060669 6.87148315 -0.58203125 7.85546875 C-0.93716797 8.55994141 -1.29230469 9.26441406 -1.65820312 9.99023438 C-2.22958008 11.07788086 -2.22958008 11.07788086 -2.8125 12.1875 C-3.18181641 12.92419922 -3.55113281 13.66089844 -3.93164062 14.41992188 C-6.71898191 19.85949096 -6.71898191 19.85949096 -9 21 C-8.27323833 16.97252906 -6.36022864 13.53468911 -4.5 9.9375 C-1.99270027 5.08317193 -1.99270027 5.08317193 0 0 Z " fill="#B5916B" transform="translate(1600,1103)"/>
<path d="M0 0 C-1.47721422 3.45201639 -3.43794001 5.64961936 -6.125 8.25 C-6.84945312 8.95640625 -7.57390625 9.6628125 -8.3203125 10.390625 C-8.87460937 10.92171875 -9.42890625 11.4528125 -10 12 C-10.33 11.01 -10.66 10.02 -11 9 C-9.54782324 7.49403892 -8.08807139 5.99537896 -6.625 4.5 C-5.40683594 3.24703125 -5.40683594 3.24703125 -4.1640625 1.96875 C-2 0 -2 0 0 0 Z " fill="#B6936A" transform="translate(619,1436)"/>
<path d="M0 0 C0.66 0.33 1.32 0.66 2 1 C-0.31 5.29 -2.62 9.58 -5 14 C-6.12837492 9.48650033 -5.87706931 9.07631749 -3.625 5.3125 C-3.16351562 4.52488281 -2.70203125 3.73726562 -2.2265625 2.92578125 C-1 1 -1 1 0 0 Z " fill="#B58D66" transform="translate(1427,1083)"/>
<path d="M0 0 C1.91731918 0.11455681 3.8338675 0.24206258 5.75 0.375 C7.35101563 0.47941406 7.35101563 0.47941406 8.984375 0.5859375 C11.80206432 0.9728223 13.5830366 1.55686166 16 3 C14.27119018 3.05449838 12.54187288 3.09301688 10.8125 3.125 C9.84957031 3.14820313 8.88664062 3.17140625 7.89453125 3.1953125 C4.87187222 2.9913544 2.73230015 2.26874632 0 1 C0 0.67 0 0.34 0 0 Z " fill="#C8A982" transform="translate(28,1629)"/>
<path d="M0 0 C0.66 0 1.32 0 2 0 C0.97137215 5.44567686 -0.24614784 10.11817117 -3 15 C-3.66 14.34 -4.32 13.68 -5 13 C-4.34 13 -3.68 13 -3 13 C-2.86722656 12.31292969 -2.73445312 11.62585937 -2.59765625 10.91796875 C-2.42105469 10.01691406 -2.24445312 9.11585937 -2.0625 8.1875 C-1.88847656 7.29417969 -1.71445312 6.40085937 -1.53515625 5.48046875 C-1 3 -1 3 0 0 Z " fill="#B49271" transform="translate(580,1609)"/>
<path d="M0 0 C0.66 0.33 1.32 0.66 2 1 C-0.97 4.3 -3.94 7.6 -7 11 C-7.66 10.67 -8.32 10.34 -9 10 C-7.8758824 8.70756532 -6.75067408 7.41607925 -5.625 6.125 C-4.99851562 5.40570312 -4.37203125 4.68640625 -3.7265625 3.9453125 C-2.52573166 2.5923402 -1.2791655 1.2791655 0 0 Z " fill="#B89068" transform="translate(890,757)"/>
<path d="M0 0 C0 0.66 0 1.32 0 2 C-1.8984375 3.5078125 -1.8984375 3.5078125 -4.375 5.125 C-5.59316406 5.93324219 -5.59316406 5.93324219 -6.8359375 6.7578125 C-9 8 -9 8 -11 8 C-11 7.34 -11 6.68 -11 6 C-9.1015625 4.4921875 -9.1015625 4.4921875 -6.625 2.875 C-5.81289062 2.33617187 -5.00078125 1.79734375 -4.1640625 1.2421875 C-2 0 -2 0 0 0 Z " fill="#B39473" transform="translate(1281,1626)"/>
<path d="M0 0 C0.66 0 1.32 0 2 0 C1.55123384 1.64846769 1.09069512 3.29373455 0.625 4.9375 C0.36976563 5.85402344 0.11453125 6.77054688 -0.1484375 7.71484375 C-1 10 -1 10 -3 11 C-2.67 8.69 -2.34 6.38 -2 4 C-1.34 4 -0.68 4 0 4 C0 2.68 0 1.36 0 0 Z " fill="#B39270" transform="translate(702,1466)"/>
<path d="M0 0 C3.00617269 3.00617269 2.59585316 5.82381598 3 10 C2.67 9.01 2.34 8.02 2 7 C1.34 7 0.68 7 0 7 C0 4.69 0 2.38 0 0 Z " fill="#A98564" transform="translate(1076,1146)"/>
</svg>
